<svg width="79" height="85" viewBox="0 0 79 85" fill="none" xmlns="http://www.w3.org/2000/svg">
<path d="M76.5628 53.6116C75.6873 51.9881 74.4718 50.8661 73.2988 49.7781C71.6838 48.2736 70.0093 46.7266 69.1338 43.8706C67.9523 40.0201 67.4168 35.6936 66.8983 31.5201C66.1248 25.2641 65.3258 18.7871 62.3593 13.4746C58.2708 6.13062 50.3488 0.911625 42.1888 0.172125C40.2678 -0.057375 38.0748 -0.057375 35.8648 0.172125C25.4183 1.28562 16.1703 9.20762 13.3738 19.4416C12.2688 23.4791 11.6483 27.9586 11.0533 32.2936C10.6113 35.4811 10.1608 38.7706 9.5148 41.8476C8.5713 46.3526 7.3558 47.4916 5.3498 49.3701C4.6528 50.0246 3.8623 50.7556 2.9528 51.7586C-0.413203 55.4391 -0.965703 61.2616 1.6268 65.6051C5.2478 71.6571 11.2488 71.4531 17.5983 71.2321C18.7288 71.1896 19.8848 71.1556 21.0323 71.1556C21.8058 71.1556 22.5708 71.1726 23.3188 71.2236H23.4973L23.5143 71.4106C24.0498 75.8391 26.5063 79.8171 30.2463 82.3161C34.0883 84.8916 38.8483 85.6566 43.3108 84.4156C49.3628 82.7411 53.8848 77.5136 54.5563 71.4106L54.5733 71.2321L54.7518 71.2151C56.6048 71.0621 58.6023 71.1386 60.5233 71.2151C65.2068 71.4021 70.0603 71.5891 73.7493 68.5716C78.2118 64.9166 79.3763 58.7626 76.5883 53.6031L76.5628 53.6116ZM48.5808 71.4786C47.4163 76.0601 43.6593 79.0181 39.0183 79.0181C34.3688 79.0181 30.6203 76.0601 29.4558 71.4786L29.3878 71.2151H48.6488L48.5808 71.4786ZM71.7688 61.5421C71.1908 63.1996 69.9583 64.3981 68.1988 65.0101H68.1393C60.6933 65.2566 53.1453 65.3161 45.6653 65.3161C41.4918 65.3161 37.3523 65.2991 33.2468 65.2821C26.0303 65.2481 18.5673 65.2141 11.2403 65.2821C9.5148 65.1036 8.0613 64.3386 7.1008 63.1231C6.1403 61.9076 5.7408 60.2926 5.9703 58.5756C6.2253 56.6461 7.6448 55.4561 9.0133 54.3086C9.5488 53.8581 10.0503 53.4331 10.4923 52.9656C15.1418 48.0441 16.1278 40.0966 17.0883 32.4126C17.6748 27.7206 18.2273 23.2921 19.5533 19.5436C22.1458 12.2336 29.3028 6.65762 36.9613 5.96912C47.3823 5.03412 56.7408 11.6131 59.2313 21.6006C59.9113 24.3461 60.3703 27.7376 60.8548 31.3331C61.8068 38.4391 62.8948 46.4971 66.0993 50.8576C66.8133 51.8266 67.7228 52.6851 68.6068 53.5096C70.9188 55.6771 73.0948 57.7171 71.7688 61.5421Z" fill="#8FB7FF"/>
</svg>
