<svg width="163" height="85" viewBox="0 0 163 85" fill="none" xmlns="http://www.w3.org/2000/svg">
<rect x="1.5" y="1.5" width="160" height="82" rx="17.4" fill="#CFE3FF"/>
<rect x="1.5" y="1.5" width="160" height="82" rx="17.4" stroke="#8FB7FF" stroke-width="3"/>
<path d="M63.1885 32.5195C63.1885 34.1094 62.8332 35.5788 62.1226 36.9277C61.4119 38.2767 60.3701 39.4329 58.9971 40.3965C57.6361 41.348 55.98 42.0405 54.0288 42.4741L52.3486 39.3306C53.9626 39.0054 55.3356 38.5055 56.4678 37.8311C57.612 37.1445 58.4731 36.3436 59.0513 35.4282C59.6294 34.5129 59.9185 33.5433 59.9185 32.5195V32.0679H63.1885V32.5195ZM63.9473 32.5195C63.9473 33.4831 64.2363 34.3924 64.8145 35.2476C65.4046 36.0907 66.2537 36.8314 67.3618 37.4697C68.4819 38.1081 69.8369 38.5838 71.4268 38.897L69.8188 42.0225C67.8918 41.613 66.2417 40.9565 64.8687 40.0532C63.5076 39.1379 62.4718 38.0358 61.7612 36.7471C61.0627 35.4583 60.7134 34.0492 60.7134 32.5195V32.0679H63.9473V32.5195ZM70.686 32.5918H53.1797V29.4844H70.686V32.5918ZM63.9473 31.7065H59.9546V26.1421H63.9473V31.7065ZM63.9653 57.7041H59.9546V44.6421H63.9653V57.7041ZM78.3823 58.6978H74.4077V26.0879H78.3823V58.6978ZM51.1021 44.1724C55.2212 44.1724 59.0091 44.1121 62.4658 43.9917C65.9346 43.8713 69.2166 43.6183 72.312 43.2329L72.583 46.1416C69.3672 46.6715 66.049 47.0269 62.6284 47.2075C59.2078 47.3761 55.5404 47.4604 51.626 47.4604L51.1021 44.1724ZM111.075 54.687H81.2296V51.4351H111.075V54.687ZM97.9591 52.3564H93.9845V43.8472H97.9591V52.3564ZM97.3448 30.4419C97.3448 32.7183 96.7607 34.8501 95.5924 36.8374C94.4361 38.8247 92.8282 40.5049 90.7687 41.8779C88.7091 43.251 86.3906 44.1844 83.8131 44.6782L82.0606 41.3359C84.3009 40.9626 86.3183 40.2279 88.1129 39.1318C89.9075 38.0238 91.3046 36.7109 92.3043 35.1934C93.316 33.6637 93.8219 32.0799 93.8219 30.4419V28.0571H97.3448V30.4419ZM98.0675 30.4419C98.0675 32.0799 98.5794 33.6637 99.6031 35.1934C100.627 36.723 102.036 38.0358 103.831 39.1318C105.625 40.2279 107.649 40.9626 109.901 41.3359L108.167 44.6782C105.565 44.1724 103.234 43.245 101.175 41.896C99.1274 40.535 97.5195 38.8669 96.3512 36.8916C95.1829 34.9043 94.5987 32.7544 94.5987 30.4419V28.0571H98.0675V30.4419Z" fill="#111111"/>
</svg>
