<svg width="85" height="85" viewBox="0 0 85 85" fill="none" xmlns="http://www.w3.org/2000/svg">
<path d="M81.096 69.5407C81.1723 69.0067 81.5877 68.2693 81.9861 67.5659C82.2574 67.0743 82.5202 66.6166 82.6728 66.2182C88.6324 50.9454 82.8593 34.8927 68.6342 27.1631C66.6759 18.8994 61.9201 11.6529 55.2314 6.73707C48.5088 1.80432 40.1161 -0.55187 31.6218 0.109221C22.0338 0.855066 13.1325 5.76239 7.19831 13.5599C1.13696 21.5099 -1.25368 31.6297 0.628312 41.3257C1.20478 44.2921 2.28141 46.8771 3.42586 49.6062C3.85821 50.6318 4.29904 51.6912 4.70595 52.7676C4.50249 54.0559 3.86669 55.5391 3.18849 57.1071C1.69647 60.5736 0.00946051 64.4977 3.13763 67.0065C4.32447 67.9557 5.86736 68.2693 7.8426 67.9557C8.96162 67.7777 10.4876 67.2014 12.0983 66.5827C14.0735 65.8284 16.1166 65.0486 17.3882 65.0486C17.4221 65.0486 17.456 65.0486 17.4814 65.0486C18.1427 65.0741 19.9314 65.8708 21.3641 66.5149C22.0847 66.837 22.7035 67.1167 23.1189 67.2692C23.6445 67.4642 24.2888 67.6167 24.9076 67.7693C25.6113 67.9388 26.281 68.0998 26.7557 68.3117C27.1118 68.4727 27.9171 69.8288 28.5105 70.812C28.8327 71.3544 29.1124 71.8206 29.3074 72.0833C33.0714 77.2873 38.1579 81.1436 43.9988 83.2371C47.2796 84.4152 50.7299 85 54.2226 85C56.9777 85 59.7583 84.6356 62.505 83.8982C63.4036 83.6609 64.3531 83.2625 65.2686 82.8811C67.0828 82.1268 68.9648 81.3555 70.6603 81.6183C71.7115 81.7878 72.8135 82.1946 73.9834 82.6353C76.569 83.6015 79.2394 84.5932 81.5962 82.9828C85.038 80.6351 83.6646 77.4314 82.3337 74.3293C81.5792 72.5834 80.8756 70.9306 81.0875 69.5322L81.096 69.5407ZM76.3995 65.1164C75.7552 66.4132 75.0855 67.7523 74.9583 69.0067C74.7125 71.4307 75.467 73.397 76.2639 75.482C76.4673 76.0075 76.6708 76.5499 76.8658 77.1093C76.2723 76.9313 75.6874 76.7364 75.1194 76.5499C72.4999 75.6854 70.016 74.8717 67.1337 75.5498C66.2435 75.7617 65.3449 76.1855 64.4802 76.6008C63.8529 76.8974 63.2086 77.2025 62.5813 77.4229C52.3999 80.9826 41.2775 77.7026 34.8517 69.244C43.3969 69.2186 51.5946 66.0403 57.9611 60.2769C64.3785 54.4712 68.3883 46.5551 69.2446 37.9694C69.2869 37.5371 69.27 37.0879 69.2446 36.6557C69.2276 36.2743 69.2106 35.8759 69.2446 35.503C69.2446 35.4437 69.2446 35.3759 69.2446 35.2996C69.2446 35.1809 69.2276 34.986 69.2785 34.9521C69.2954 34.9351 69.3548 34.9351 69.465 34.986C70.016 35.2233 72.0845 37.2913 72.6355 37.91C78.6375 44.5718 80.4687 54.1152 77.4253 62.828C77.1709 63.5654 76.7895 64.3197 76.391 65.1164H76.3995ZM9.20746 58.6157C10.0467 56.5816 10.9114 54.4712 10.8521 52.5049C10.7927 50.5555 9.92804 48.7926 9.08878 47.0805C8.68186 46.2499 8.25799 45.3854 7.93585 44.5209C3.72257 33.0705 6.85074 21.0353 16.0996 13.1022C25.3909 5.1352 37.8272 3.87235 48.5596 9.80521C61.3012 16.8484 64.192 29.5955 62.6406 39.1729C60.6654 51.3691 52.0269 60.3362 40.0992 62.5568C32.7577 63.9299 29.265 62.6585 23.4834 60.5651C22.7035 60.2854 21.8812 59.9803 20.9996 59.6752C19.6856 59.2175 18.4987 59.031 17.3797 59.031C15.3282 59.031 13.4886 59.6582 11.4709 60.3362C10.4282 60.6922 9.35158 61.0567 8.17322 61.3533C8.44449 60.4888 8.8175 59.5734 9.20746 58.6157Z" fill="#8FB7FF"/>
</svg>
