<svg width="210" height="55" viewBox="0 0 210 55" fill="none" xmlns="http://www.w3.org/2000/svg">
<rect width="210" height="55" rx="18.9" fill="#4584FF"/>
<path d="M80.3171 21.5971L57.3588 13.9304C56.4734 13.6648 55.5254 13.6648 54.64 13.9304L31.6817 21.5971C30.9213 21.8158 30.9317 22.894 31.6973 23.1023L39.0723 25.0919V37.7481C39.0723 39.6908 40.6504 41.269 42.5931 41.269H69.4056C71.3484 41.269 72.9265 39.6908 72.9265 37.7481V27.8106L56.3744 32.7846C56.3744 32.7846 56.3588 32.7846 56.3536 32.7846C56.239 32.8158 56.1244 32.8367 56.0046 32.8367C55.8848 32.8367 55.765 32.8158 55.6556 32.7846C55.2442 32.67 54.8952 32.3523 54.7598 31.9096C54.6817 31.6544 54.6869 31.3992 54.7598 31.1596C54.8796 30.7533 55.1973 30.42 55.6296 30.2846L56.0046 30.17L72.9317 25.0815L80.3067 23.0919C81.0723 22.8835 81.0775 21.8054 80.3223 21.5867L80.3171 21.5971Z" fill="white"/>
<path d="M91.168 17.2891H104.483V20.0576H94.3906V26.5029H103.78V29.2568H94.3906V35.7314H104.586V38.5H91.168V17.2891ZM114.093 28.7734L117.623 22.5918H121.051L116.085 30.5312L121.08 38.5H117.696L114.093 32.5527L110.562 38.5H107.135L112.042 30.5312L107.179 22.5918H110.621L114.093 28.7734ZM123.907 22.5918H126.939V25.1553H127.203C127.506 24.6377 127.813 24.1934 128.126 23.8223C128.438 23.4512 128.897 23.1191 129.503 22.8262C130.118 22.5332 130.88 22.3867 131.788 22.3867C133.067 22.3867 134.21 22.7139 135.216 23.3682C136.231 24.0127 137.022 24.9551 137.589 26.1953C138.155 27.4258 138.438 28.8857 138.438 30.5752C138.438 32.2451 138.155 33.7051 137.589 34.9551C137.032 36.1953 136.246 37.1475 135.23 37.8115C134.225 38.4658 133.082 38.793 131.803 38.793C130.924 38.793 130.172 38.6465 129.547 38.3535C128.932 38.0508 128.458 37.7139 128.126 37.3428C127.794 36.9717 127.486 36.5371 127.203 36.0391H127.027V44.4766H123.907V22.5918ZM126.954 30.5312C126.954 31.6445 127.115 32.626 127.438 33.4756C127.76 34.3154 128.233 34.9697 128.858 35.4385C129.483 35.9072 130.235 36.1416 131.114 36.1416C132.003 36.1416 132.765 35.9023 133.399 35.4238C134.034 34.9355 134.508 34.2715 134.82 33.4316C135.133 32.582 135.289 31.6152 135.289 30.5312C135.289 29.4668 135.133 28.5195 134.82 27.6895C134.508 26.8594 134.039 26.2148 133.414 25.7559C132.789 25.2871 132.022 25.0527 131.114 25.0527C130.226 25.0527 129.469 25.2773 128.844 25.7266C128.229 26.1758 127.76 26.8105 127.438 27.6309C127.115 28.4512 126.954 29.418 126.954 30.5312ZM148.429 38.8223C146.896 38.8223 145.553 38.4854 144.4 37.8115C143.258 37.1377 142.379 36.1855 141.764 34.9551C141.148 33.7246 140.841 32.2939 140.841 30.6631C140.841 29.0322 141.148 27.5918 141.764 26.3418C142.379 25.082 143.243 24.1104 144.356 23.4268C145.47 22.7334 146.754 22.3867 148.209 22.3867C149.498 22.3867 150.675 22.665 151.739 23.2217C152.804 23.7686 153.658 24.6426 154.303 25.8438C154.947 27.0352 155.27 28.5439 155.27 30.3701V31.4688H142.599V29.1396H152.208C152.208 28.3291 152.042 27.6113 151.71 26.9863C151.388 26.3516 150.924 25.8535 150.318 25.4922C149.713 25.1309 149.02 24.9502 148.238 24.9502C147.389 24.9502 146.642 25.1553 145.997 25.5654C145.353 25.9756 144.85 26.5273 144.488 27.2207C144.127 27.9141 143.946 28.6562 143.946 29.4473V31.2637C143.946 32.3086 144.132 33.207 144.503 33.959C144.884 34.7109 145.411 35.2822 146.085 35.6729C146.769 36.0635 147.555 36.2588 148.443 36.2588C149.01 36.2588 149.522 36.1807 149.981 36.0244C150.44 35.8584 150.831 35.6533 151.153 35.4092C151.476 35.1553 151.725 34.8574 151.9 34.5156H155.079C154.845 35.375 154.425 36.127 153.819 36.7715C153.214 37.416 152.447 37.9189 151.52 38.2803C150.602 38.6416 149.571 38.8223 148.429 38.8223ZM158.36 22.5918H161.378V25.1406H161.554C161.837 24.2617 162.345 23.5781 163.077 23.0898C163.81 22.5918 164.635 22.3428 165.553 22.3428C166.041 22.3428 166.49 22.3721 166.9 22.4307V25.4189C166.773 25.3701 166.544 25.3262 166.212 25.2871C165.88 25.2383 165.562 25.2139 165.26 25.2139C164.557 25.2139 163.917 25.3701 163.341 25.6826C162.765 25.9854 162.311 26.4102 161.979 26.957C161.646 27.5039 161.48 28.1191 161.48 28.8027V38.5H158.36V22.5918ZM177.608 25.082H168.907V22.5918H177.608V25.082ZM174.386 18.7832V33.8271C174.386 34.3936 174.469 34.8281 174.635 35.1309C174.801 35.4336 175.021 35.6436 175.294 35.7607C175.567 35.8779 175.895 35.9365 176.275 35.9365C176.744 35.9365 177.267 35.917 177.843 35.8779V38.5732C177.286 38.6611 176.642 38.7051 175.909 38.7051C175.06 38.7051 174.278 38.5488 173.565 38.2363C172.862 37.9141 172.296 37.4355 171.866 36.8008C171.446 36.1562 171.236 35.375 171.236 34.457V18.7832H174.386Z" fill="white"/>
</svg>
