<svg width="210" height="55" viewBox="0 0 210 55" fill="none" xmlns="http://www.w3.org/2000/svg">
<rect width="210" height="55" rx="18.9" fill="#7AA9FF"/>
<path d="M68.3171 21.5971L45.3588 13.9304C44.4734 13.6648 43.5254 13.6648 42.64 13.9304L19.6817 21.5971C18.9213 21.8158 18.9317 22.894 19.6973 23.1023L27.0723 25.0919V37.7481C27.0723 39.6908 28.6504 41.269 30.5931 41.269H57.4056C59.3484 41.269 60.9265 39.6908 60.9265 37.7481V27.8106L44.3744 32.7846C44.3744 32.7846 44.3588 32.7846 44.3536 32.7846C44.239 32.8158 44.1244 32.8367 44.0046 32.8367C43.8848 32.8367 43.765 32.8158 43.6556 32.7846C43.2442 32.67 42.8952 32.3523 42.7598 31.9096C42.6817 31.6544 42.6869 31.3992 42.7598 31.1596C42.8796 30.7533 43.1973 30.42 43.6296 30.2846L44.0046 30.17L60.9317 25.0815L68.3067 23.0919C69.0723 22.8835 69.0775 21.8054 68.3223 21.5867L68.3171 21.5971Z" fill="white"/>
<path d="M83.0791 17.2891L89.8174 33.7246H90.0664L96.8047 17.2891H100.716V38.5H97.6396V23.1777H97.4346L91.1943 38.4707H88.6602L82.4199 23.1777H82.2441V38.5H79.168V17.2891H83.0791ZM111.644 38.8223C110.11 38.8223 108.768 38.4854 107.615 37.8115C106.473 37.1377 105.594 36.1855 104.979 34.9551C104.363 33.7246 104.056 32.2939 104.056 30.6631C104.056 29.0322 104.363 27.5918 104.979 26.3418C105.594 25.082 106.458 24.1104 107.571 23.4268C108.685 22.7334 109.969 22.3867 111.424 22.3867C112.713 22.3867 113.89 22.665 114.954 23.2217C116.019 23.7686 116.873 24.6426 117.518 25.8438C118.162 27.0352 118.484 28.5439 118.484 30.3701V31.4688H105.813V29.1396H115.423C115.423 28.3291 115.257 27.6113 114.925 26.9863C114.603 26.3516 114.139 25.8535 113.533 25.4922C112.928 25.1309 112.234 24.9502 111.453 24.9502C110.604 24.9502 109.856 25.1553 109.212 25.5654C108.567 25.9756 108.064 26.5273 107.703 27.2207C107.342 27.9141 107.161 28.6562 107.161 29.4473V31.2637C107.161 32.3086 107.347 33.207 107.718 33.959C108.099 34.7109 108.626 35.2822 109.3 35.6729C109.983 36.0635 110.77 36.2588 111.658 36.2588C112.225 36.2588 112.737 36.1807 113.196 36.0244C113.655 35.8584 114.046 35.6533 114.368 35.4092C114.69 35.1553 114.939 34.8574 115.115 34.5156H118.294C118.06 35.375 117.64 36.127 117.034 36.7715C116.429 37.416 115.662 37.9189 114.734 38.2803C113.816 38.6416 112.786 38.8223 111.644 38.8223ZM121.575 22.5918H124.563V25.1846H124.769C125.12 24.2959 125.667 23.6074 126.409 23.1191C127.151 22.6309 128.045 22.3867 129.09 22.3867C129.783 22.3867 130.408 22.4941 130.965 22.709C131.531 22.9238 132.015 23.2412 132.415 23.6611C132.815 24.0811 133.133 24.5889 133.367 25.1846H133.528C133.792 24.5986 134.153 24.1006 134.612 23.6904C135.071 23.2705 135.613 22.9482 136.238 22.7236C136.873 22.499 137.566 22.3867 138.318 22.3867C139.305 22.3867 140.164 22.5918 140.896 23.002C141.629 23.4121 142.2 24.0225 142.61 24.833C143.03 25.6436 143.24 26.6494 143.24 27.8506V38.5H140.105V28.1436C140.105 27.1084 139.827 26.3418 139.271 25.8438C138.714 25.3359 138.001 25.082 137.132 25.082C136.468 25.082 135.896 25.2236 135.418 25.5068C134.939 25.7803 134.573 26.166 134.319 26.6641C134.065 27.1523 133.938 27.7188 133.938 28.3633V38.5H130.833V27.9238C130.833 27.3672 130.711 26.874 130.467 26.4443C130.232 26.0049 129.896 25.668 129.456 25.4336C129.017 25.1992 128.514 25.082 127.947 25.082C127.371 25.082 126.834 25.2334 126.336 25.5361C125.838 25.8389 125.438 26.2637 125.135 26.8105C124.842 27.3574 124.695 27.9824 124.695 28.6855V38.5H121.575V22.5918ZM147.283 17.2891H150.403V25.1553H150.579C150.94 24.5791 151.263 24.1201 151.546 23.7783C151.829 23.4365 152.273 23.1191 152.879 22.8262C153.494 22.5332 154.251 22.3867 155.149 22.3867C156.438 22.3867 157.586 22.7139 158.592 23.3682C159.607 24.0127 160.403 24.9551 160.979 26.1953C161.556 27.4258 161.844 28.8857 161.844 30.5752C161.844 32.2451 161.556 33.7051 160.979 34.9551C160.413 36.1953 159.627 37.1475 158.621 37.8115C157.625 38.4658 156.478 38.793 155.179 38.793C154.29 38.793 153.538 38.6465 152.923 38.3535C152.317 38.0508 151.854 37.7188 151.531 37.3574C151.209 36.9863 150.892 36.5469 150.579 36.0391H150.315V38.5H147.283V17.2891ZM150.33 30.5312C150.33 31.6445 150.491 32.626 150.813 33.4756C151.136 34.3154 151.609 34.9697 152.234 35.4385C152.859 35.9072 153.602 36.1416 154.461 36.1416C155.359 36.1416 156.121 35.9023 156.746 35.4238C157.381 34.9355 157.859 34.2715 158.182 33.4316C158.504 32.582 158.665 31.6152 158.665 30.5312C158.665 29.4668 158.509 28.5195 158.196 27.6895C157.884 26.8594 157.41 26.2148 156.775 25.7559C156.141 25.2871 155.369 25.0527 154.461 25.0527C153.592 25.0527 152.845 25.2773 152.22 25.7266C151.604 26.1758 151.136 26.8105 150.813 27.6309C150.491 28.4512 150.33 29.418 150.33 30.5312ZM171.819 38.8223C170.286 38.8223 168.943 38.4854 167.791 37.8115C166.648 37.1377 165.77 36.1855 165.154 34.9551C164.539 33.7246 164.231 32.2939 164.231 30.6631C164.231 29.0322 164.539 27.5918 165.154 26.3418C165.77 25.082 166.634 24.1104 167.747 23.4268C168.86 22.7334 170.145 22.3867 171.6 22.3867C172.889 22.3867 174.065 22.665 175.13 23.2217C176.194 23.7686 177.049 24.6426 177.693 25.8438C178.338 27.0352 178.66 28.5439 178.66 30.3701V31.4688H165.989V29.1396H175.599C175.599 28.3291 175.433 27.6113 175.101 26.9863C174.778 26.3516 174.314 25.8535 173.709 25.4922C173.104 25.1309 172.41 24.9502 171.629 24.9502C170.779 24.9502 170.032 25.1553 169.388 25.5654C168.743 25.9756 168.24 26.5273 167.879 27.2207C167.518 27.9141 167.337 28.6562 167.337 29.4473V31.2637C167.337 32.3086 167.522 33.207 167.894 33.959C168.274 34.7109 168.802 35.2822 169.476 35.6729C170.159 36.0635 170.945 36.2588 171.834 36.2588C172.4 36.2588 172.913 36.1807 173.372 36.0244C173.831 35.8584 174.222 35.6533 174.544 35.4092C174.866 35.1553 175.115 34.8574 175.291 34.5156H178.47C178.235 35.375 177.815 36.127 177.21 36.7715C176.604 37.416 175.838 37.9189 174.91 38.2803C173.992 38.6416 172.962 38.8223 171.819 38.8223ZM181.751 22.5918H184.769V25.1406H184.944C185.228 24.2617 185.735 23.5781 186.468 23.0898C187.2 22.5918 188.025 22.3428 188.943 22.3428C189.432 22.3428 189.881 22.3721 190.291 22.4307V25.4189C190.164 25.3701 189.935 25.3262 189.603 25.2871C189.271 25.2383 188.953 25.2139 188.65 25.2139C187.947 25.2139 187.308 25.3701 186.731 25.6826C186.155 25.9854 185.701 26.4102 185.369 26.957C185.037 27.5039 184.871 28.1191 184.871 28.8027V38.5H181.751V22.5918Z" fill="white"/>
</svg>
