<svg width="100" height="100" viewBox="0 0 100 100" fill="none" xmlns="http://www.w3.org/2000/svg">
<path d="M50 0C52.6183 6.36941e-05 54.7421 2.12389 54.7422 4.74219V45.2568H95.2578C97.8758 45.2572 99.9989 47.381 99.999 49.999C99.999 52.6171 97.8759 54.7408 95.2578 54.7412H54.7422V95.2578C54.7418 97.8758 52.6181 99.9999 50 100C47.382 99.9999 45.2582 97.8758 45.2578 95.2578V54.7412H4.74219C2.12398 54.741 5.20338e-05 52.6173 0 49.999C0.000142958 47.3809 2.12403 45.257 4.74219 45.2568H45.2578V4.74219C45.2579 2.12393 47.3818 0.000131616 50 0Z" fill="black"/>
</svg>
