<svg width="85" height="100" viewBox="0 0 85 100" fill="none" xmlns="http://www.w3.org/2000/svg">
<path d="M42.5869 0C48.4333 0.020022 54.4298 1.42202 59.7656 4.3252C59.8557 4.37525 59.9463 4.41479 60.0264 4.46484C60.2566 4.58497 60.4868 4.72534 60.707 4.85547C60.9773 5.01563 61.258 5.17553 61.5283 5.3457C61.5782 5.37564 61.6181 5.40561 61.668 5.43555C66.3932 8.44887 70.4476 12.7041 73.2607 18.2002C73.4409 18.5606 73.6208 18.9314 73.791 19.3018C73.831 19.4018 73.8816 19.5015 73.9316 19.6016C75.6135 23.3356 76.7543 27.6304 77.1748 32.5156V77.2656H79.9482C82.6812 77.2656 84.9033 79.4877 84.9033 82.2207V95.0449C84.9033 97.7779 82.6812 100 79.9482 100H4.95508C2.22225 99.9998 2.06145e-05 97.7778 0 95.0449V82.2207C1.30985e-05 79.4878 2.22225 77.2658 4.95508 77.2656H7.72852V32.2754C8.19905 27.4001 9.37041 23.1254 11.0723 19.4014C11.1123 19.3214 11.1524 19.2314 11.1924 19.1514C11.3726 18.7709 11.5627 18.3902 11.7529 18.0098H11.7627C14.8261 12.1032 19.3316 7.64882 24.5674 4.64551C24.7075 4.56543 24.8479 4.47461 24.998 4.39453C25.1379 4.31464 25.2879 4.24493 25.4277 4.16504C30.7336 1.35193 36.6606 0 42.457 0H42.5869ZM7.62793 92.7324H77.2754V84.9033H7.62793V92.7324ZM42.4473 7.55859C35.84 7.55859 29.5526 9.80077 24.7373 13.8652C19.3614 18.4102 16.1082 24.9477 15.3574 32.7764V77.2656H69.5469L69.5566 32.7666C68.7858 24.938 65.5422 18.4005 60.1562 13.8555C55.341 9.80108 49.0544 7.55869 42.4473 7.55859ZM42.4863 53.709C44.6371 53.709 46.3809 55.4528 46.3809 57.6035C46.3808 59.7543 44.6371 61.498 42.4863 61.498C40.3358 61.4978 38.5928 59.7541 38.5928 57.6035C38.5928 55.4529 40.3357 53.7092 42.4863 53.709ZM42.4766 23.0049C43.3075 23.0049 44.1186 23.2558 44.7793 23.7363C45.6402 24.357 46.1804 25.2878 46.3105 26.3389L46.291 42.8076C45.9305 45.0698 44.0182 46.0811 42.3564 46.0811H42.2861C40.8047 46.0509 38.9633 45.1797 38.6729 42.8076L38.6924 26.3389C38.9227 24.8573 40.2848 23.3662 41.6562 23.0859C41.9264 23.0359 42.2064 23.0049 42.4766 23.0049Z" fill="black"/>
</svg>
