<svg width="210" height="55" viewBox="0 0 210 55" fill="none" xmlns="http://www.w3.org/2000/svg">
<rect width="210" height="55" rx="18.9" fill="#AFCDFF"/>
<path d="M78.8171 21.5971L55.8588 13.9304C54.9734 13.6648 54.0254 13.6648 53.14 13.9304L30.1817 21.5971C29.4213 21.8158 29.4317 22.894 30.1973 23.1023L37.5723 25.0919V37.7481C37.5723 39.6908 39.1504 41.269 41.0931 41.269H67.9056C69.8484 41.269 71.4265 39.6908 71.4265 37.7481V27.8106L54.8744 32.7846C54.8744 32.7846 54.8588 32.7846 54.8536 32.7846C54.739 32.8158 54.6244 32.8367 54.5046 32.8367C54.3848 32.8367 54.265 32.8158 54.1556 32.7846C53.7442 32.67 53.3952 32.3523 53.2598 31.9096C53.1817 31.6544 53.1869 31.3992 53.2598 31.1596C53.3796 30.7533 53.6973 30.42 54.1296 30.2846L54.5046 30.17L71.4317 25.0815L78.8067 23.0919C79.5723 22.8835 79.5775 21.8054 78.8223 21.5867L78.8171 21.5971Z" fill="white"/>
<path d="M89.668 17.2891H97.2266C98.8477 17.2891 100.205 17.5674 101.299 18.124C102.402 18.6709 103.228 19.4473 103.774 20.4531C104.321 21.459 104.595 22.626 104.595 23.9541C104.595 25.2627 104.321 26.4102 103.774 27.3965C103.228 28.373 102.397 29.1348 101.284 29.6816C100.181 30.2285 98.8232 30.502 97.2119 30.502H91.4844V27.7041H96.9043C97.9395 27.7041 98.7842 27.5576 99.4385 27.2646C100.093 26.9717 100.571 26.5469 100.874 25.9902C101.187 25.4336 101.343 24.7549 101.343 23.9541C101.343 23.124 101.187 22.4209 100.874 21.8447C100.571 21.2588 100.088 20.8145 99.4238 20.5117C98.7598 20.209 97.915 20.0576 96.8896 20.0576H92.8906V38.5H89.668V17.2891ZM105.386 38.5H101.709L96.582 28.9346H100.156L105.386 38.5ZM114.424 38.8223C112.939 38.8223 111.631 38.4805 110.498 37.7969C109.375 37.1133 108.506 36.1514 107.891 34.9111C107.275 33.6709 106.968 32.2402 106.968 30.6191C106.968 28.9785 107.275 27.5381 107.891 26.2979C108.506 25.0576 109.375 24.0957 110.498 23.4121C111.631 22.7285 112.939 22.3867 114.424 22.3867C115.898 22.3867 117.197 22.7285 118.32 23.4121C119.443 24.0957 120.308 25.0576 120.913 26.2979C121.519 27.5381 121.821 28.9785 121.821 30.6191C121.821 32.2402 121.519 33.6709 120.913 34.9111C120.308 36.1514 119.443 37.1133 118.32 37.7969C117.197 38.4805 115.898 38.8223 114.424 38.8223ZM114.424 36.2148C115.361 36.2148 116.147 35.9658 116.782 35.4678C117.417 34.96 117.891 34.2861 118.203 33.4463C118.516 32.5967 118.672 31.6494 118.672 30.6045C118.672 29.5596 118.516 28.6123 118.203 27.7627C117.891 26.9131 117.417 26.2393 116.782 25.7412C116.147 25.2334 115.361 24.9795 114.424 24.9795C113.486 24.9795 112.695 25.2334 112.051 25.7412C111.406 26.2393 110.923 26.9131 110.601 27.7627C110.278 28.6123 110.117 29.5596 110.117 30.6045C110.117 31.6494 110.278 32.5967 110.601 33.4463C110.923 34.2861 111.406 34.96 112.051 35.4678C112.695 35.9658 113.486 36.2148 114.424 36.2148ZM131.68 38.8223C130.195 38.8223 128.887 38.4805 127.754 37.7969C126.631 37.1133 125.762 36.1514 125.146 34.9111C124.531 33.6709 124.224 32.2402 124.224 30.6191C124.224 28.9785 124.531 27.5381 125.146 26.2979C125.762 25.0576 126.631 24.0957 127.754 23.4121C128.887 22.7285 130.195 22.3867 131.68 22.3867C133.154 22.3867 134.453 22.7285 135.576 23.4121C136.699 24.0957 137.563 25.0576 138.169 26.2979C138.774 27.5381 139.077 28.9785 139.077 30.6191C139.077 32.2402 138.774 33.6709 138.169 34.9111C137.563 36.1514 136.699 37.1133 135.576 37.7969C134.453 38.4805 133.154 38.8223 131.68 38.8223ZM131.68 36.2148C132.617 36.2148 133.403 35.9658 134.038 35.4678C134.673 34.96 135.146 34.2861 135.459 33.4463C135.771 32.5967 135.928 31.6494 135.928 30.6045C135.928 29.5596 135.771 28.6123 135.459 27.7627C135.146 26.9131 134.673 26.2393 134.038 25.7412C133.403 25.2334 132.617 24.9795 131.68 24.9795C130.742 24.9795 129.951 25.2334 129.307 25.7412C128.662 26.2393 128.179 26.9131 127.856 27.7627C127.534 28.6123 127.373 29.5596 127.373 30.6045C127.373 31.6494 127.534 32.5967 127.856 33.4463C128.179 34.2861 128.662 34.96 129.307 35.4678C129.951 35.9658 130.742 36.2148 131.68 36.2148ZM145.054 29.3008H145.61L151.924 22.5918H155.659L148.423 30.2676H147.925L145.083 33.1094L145.054 29.3008ZM142.212 17.2891H145.332V38.5H142.212V17.2891ZM146.577 30.9707L148.716 28.7734L156.084 38.5H152.261L146.577 30.9707ZM158.12 22.5918H161.24V38.5H158.12V22.5918ZM159.673 20.1309C159.321 20.1309 158.994 20.0527 158.691 19.8965C158.389 19.7305 158.149 19.5059 157.974 19.2227C157.798 18.9297 157.71 18.6172 157.71 18.2852C157.71 17.9434 157.798 17.6357 157.974 17.3623C158.149 17.0791 158.389 16.8545 158.691 16.6885C158.994 16.5225 159.321 16.4395 159.673 16.4395C160.044 16.4395 160.381 16.5225 160.684 16.6885C160.986 16.8545 161.221 17.0791 161.387 17.3623C161.562 17.6357 161.65 17.9434 161.65 18.2852C161.65 18.6172 161.562 18.9297 161.387 19.2227C161.221 19.5059 160.986 19.7305 160.684 19.8965C160.381 20.0527 160.044 20.1309 159.673 20.1309ZM171.919 38.8223C170.386 38.8223 169.043 38.4854 167.891 37.8115C166.748 37.1377 165.869 36.1855 165.254 34.9551C164.639 33.7246 164.331 32.2939 164.331 30.6631C164.331 29.0322 164.639 27.5918 165.254 26.3418C165.869 25.082 166.733 24.1104 167.847 23.4268C168.96 22.7334 170.244 22.3867 171.699 22.3867C172.988 22.3867 174.165 22.665 175.229 23.2217C176.294 23.7686 177.148 24.6426 177.793 25.8438C178.438 27.0352 178.76 28.5439 178.76 30.3701V31.4688H166.089V29.1396H175.698C175.698 28.3291 175.532 27.6113 175.2 26.9863C174.878 26.3516 174.414 25.8535 173.809 25.4922C173.203 25.1309 172.51 24.9502 171.729 24.9502C170.879 24.9502 170.132 25.1553 169.487 25.5654C168.843 25.9756 168.34 26.5273 167.979 27.2207C167.617 27.9141 167.437 28.6562 167.437 29.4473V31.2637C167.437 32.3086 167.622 33.207 167.993 33.959C168.374 34.7109 168.901 35.2822 169.575 35.6729C170.259 36.0635 171.045 36.2588 171.934 36.2588C172.5 36.2588 173.013 36.1807 173.472 36.0244C173.931 35.8584 174.321 35.6533 174.644 35.4092C174.966 35.1553 175.215 34.8574 175.391 34.5156H178.569C178.335 35.375 177.915 36.127 177.31 36.7715C176.704 37.416 175.938 37.9189 175.01 38.2803C174.092 38.6416 173.062 38.8223 171.919 38.8223Z" fill="white"/>
</svg>
