<svg width="100" height="100" viewBox="0 0 100 100" fill="none" xmlns="http://www.w3.org/2000/svg">
<path d="M89.58 12.8747C89.08 6.14474 83.72 0.964736 76.83 0.604736L21.37 0.664736C14.96 1.04474 9.78 5.95474 9.03 12.3347L9 91.6647C9.36 95.0347 11.47 97.7547 14.65 98.8847C17.82 100.015 21.3 99.2047 23.75 96.7747L49.37 74.3747L76.36 97.9647C78.9 99.6247 82.07 99.8647 84.77 98.5547C87.51 97.2247 89.31 94.5547 89.58 91.4047V12.8747ZM81.61 90.9047L81.34 91.2747L81.07 91.3047C80.93 91.3247 80.65 91.3547 79.55 90.4247C76.29 87.6647 72.96 84.5947 69.73 81.6247C64.91 77.1847 59.93 72.5947 54.98 68.8347C51.15 65.9247 47.42 65.9247 43.58 68.8347C38.63 72.5947 33.65 77.1747 28.83 81.6147C25.6 84.5847 22.27 87.6647 19.01 90.4247C18.67 90.7147 18.27 90.9847 17.85 91.2247L16.95 91.7447V12.4547C16.95 11.4047 18.42 10.0947 18.71 9.83474C19.22 9.39474 20.51 8.39474 21.58 8.55474H76.86C77.65 8.42474 78.81 8.91474 79.89 9.86474C80.29 10.2147 81.6 11.4447 81.6 12.6647V90.8947L81.61 90.9047Z" fill="black"/>
</svg>
