<svg width="223" height="85" viewBox="0 0 223 85" fill="none" xmlns="http://www.w3.org/2000/svg">
<rect x="1.5" y="1.5" width="220" height="82" rx="17.4" fill="#CFE3FF"/>
<rect x="1.5" y="1.5" width="220" height="82" rx="17.4" stroke="#8FB7FF" stroke-width="3"/>
<path d="M78.2739 44.606H74.2451V26.0879H78.2739V44.606ZM78.2739 58.3003H56.6304V46.1777H78.2739V58.3003ZM60.5869 55.0664H74.3354V49.3755H60.5869V55.0664ZM60.4785 27.6597C62.1527 27.6597 63.6522 27.9849 64.9771 28.6353C66.314 29.2856 67.3618 30.207 68.1206 31.3994C68.8914 32.5798 69.2769 33.9287 69.2769 35.4463C69.2769 36.9157 68.8914 38.2406 68.1206 39.4209C67.3618 40.6012 66.314 41.5226 64.9771 42.1851C63.6522 42.8475 62.1527 43.1787 60.4785 43.1787C58.8044 43.1787 57.2988 42.8475 55.9619 42.1851C54.637 41.5226 53.5892 40.6012 52.8184 39.4209C52.0596 38.2406 51.6802 36.9157 51.6802 35.4463C51.6802 33.9287 52.0596 32.5798 52.8184 31.3994C53.5892 30.207 54.637 29.2856 55.9619 28.6353C57.2988 27.9849 58.8044 27.6597 60.4785 27.6597ZM60.4785 31.0381C59.527 31.026 58.6839 31.2007 57.9492 31.562C57.2145 31.9113 56.6364 32.4232 56.2148 33.0977C55.8053 33.7721 55.6006 34.555 55.6006 35.4463C55.6006 36.3014 55.8053 37.0602 56.2148 37.7227C56.6364 38.373 57.2145 38.8789 57.9492 39.2402C58.6839 39.6016 59.527 39.7822 60.4785 39.7822C61.418 39.7822 62.249 39.6016 62.9717 39.2402C63.7064 38.8789 64.2785 38.373 64.688 37.7227C65.0975 37.0602 65.3022 36.3014 65.3022 35.4463C65.3022 34.555 65.0975 33.7721 64.688 33.0977C64.2905 32.4232 63.7244 31.9113 62.9897 31.562C62.255 31.2007 61.418 31.026 60.4785 31.0381ZM92.8102 33.8926C92.8102 36.6146 92.4368 39.186 91.69 41.6069C90.9553 44.0158 89.8774 46.1356 88.4562 47.9663C87.0349 49.797 85.3246 51.1882 83.3253 52.1396L80.8683 48.7793C82.6388 47.9964 84.1744 46.8462 85.4752 45.3286C86.776 43.799 87.7696 42.0465 88.4562 40.0713C89.1547 38.084 89.504 36.0244 89.504 33.8926V28.6714H92.8102V33.8926ZM93.5509 33.8926C93.5509 35.916 93.8881 37.8732 94.5626 39.7642C95.2371 41.6551 96.2127 43.3413 97.4894 44.8228C98.7781 46.3042 100.284 47.4183 102.006 48.165L99.6212 51.3809C97.6941 50.4775 96.02 49.1466 94.5987 47.3882C93.1775 45.6177 92.0935 43.5762 91.3468 41.2637C90.6 38.9512 90.2267 36.4941 90.2267 33.8926V28.6714H93.5509V33.8926ZM108.383 58.77H104.318V26.0518H108.383V58.77ZM138.746 58.77H134.699V26.0518H138.746V58.77ZM135.747 40.8843H128.43V37.6143H135.747V40.8843ZM122.45 34.7417C122.45 37.2951 122.083 39.7461 121.348 42.0947C120.625 44.4313 119.571 46.515 118.186 48.3457C116.813 50.1644 115.187 51.5495 113.308 52.501L110.905 49.3394C112.604 48.5324 114.079 47.3701 115.332 45.8525C116.596 44.3229 117.56 42.5946 118.222 40.6675C118.897 38.7404 119.234 36.7651 119.234 34.7417V31.002H122.45V34.7417ZM123.317 34.7417C123.317 36.6567 123.648 38.5356 124.311 40.3784C124.985 42.2212 125.949 43.8773 127.201 45.3467C128.466 46.804 129.947 47.9061 131.646 48.6528L129.279 51.8325C127.388 50.9292 125.75 49.6043 124.365 47.8579C122.992 46.0994 121.944 44.0941 121.221 41.8418C120.511 39.5775 120.155 37.2108 120.155 34.7417V31.002H123.317V34.7417ZM130.345 32.5376H112.242V29.2856H130.345V32.5376ZM152.415 31.9595C152.415 34.019 152.06 35.9521 151.349 37.7588C150.638 39.5534 149.584 41.1191 148.187 42.4561C146.802 43.7809 145.122 44.7806 143.147 45.4551L141.105 42.2573C142.804 41.6912 144.255 40.8843 145.459 39.8364C146.676 38.7765 147.591 37.5721 148.205 36.2231C148.832 34.8621 149.145 33.4409 149.145 31.9595V29.647H152.415V31.9595ZM153.192 31.9414C153.192 33.2904 153.481 34.5791 154.059 35.8076C154.637 37.0241 155.498 38.1081 156.642 39.0596C157.799 39.999 159.202 40.7277 160.852 41.2456L158.955 44.4072C157.028 43.793 155.384 42.8716 154.023 41.6431C152.674 40.4146 151.65 38.9692 150.951 37.3071C150.253 35.645 149.904 33.8564 149.904 31.9414V29.647H153.192V31.9414ZM159.967 31.562H142.243V28.3281H159.967V31.562ZM167.229 45.5273H163.219V26.0518H167.229V45.5273ZM171.8 37.1807H166.091V33.8745H171.8V37.1807ZM156.606 46.25C158.859 46.25 160.804 46.4909 162.442 46.9727C164.092 47.4544 165.35 48.165 166.218 49.1045C167.097 50.0319 167.536 51.14 167.536 52.4287C167.536 53.7174 167.097 54.8315 166.218 55.771C165.35 56.7104 164.092 57.4271 162.442 57.9209C160.804 58.4147 158.859 58.6616 156.606 58.6616C154.342 58.6616 152.379 58.4147 150.717 57.9209C149.054 57.4271 147.772 56.7104 146.868 55.771C145.977 54.8315 145.532 53.7174 145.532 52.4287C145.532 51.14 145.977 50.0319 146.868 49.1045C147.76 48.165 149.036 47.4544 150.699 46.9727C152.373 46.4909 154.342 46.25 156.606 46.25ZM156.606 49.3936C155.125 49.3936 153.854 49.508 152.794 49.7368C151.746 49.9536 150.945 50.2909 150.391 50.7485C149.849 51.2062 149.578 51.7663 149.578 52.4287C149.578 53.0791 149.849 53.6392 150.391 54.1089C150.945 54.5786 151.746 54.9339 152.794 55.1748C153.842 55.4036 155.113 55.5181 156.606 55.5181C158.112 55.5181 159.382 55.4036 160.418 55.1748C161.466 54.9339 162.255 54.5786 162.785 54.1089C163.315 53.6392 163.58 53.0791 163.58 52.4287C163.58 51.7663 163.315 51.2062 162.785 50.7485C162.255 50.2909 161.466 49.9536 160.418 49.7368C159.37 49.508 158.1 49.3936 156.606 49.3936Z" fill="#111111"/>
</svg>
