<svg width="859" height="150" viewBox="0 0 859 150" fill="none" xmlns="http://www.w3.org/2000/svg">
<path d="M33.54 8.73535C42.542 8.73535 49.8436 16.0372 49.8438 25.0391C49.8439 16.0373 57.1457 8.73552 66.1475 8.73535H99.6885C99.6885 27.5395 84.4518 42.8096 65.6143 42.8096H55.5449C56.6785 54.3455 65.1145 62.4473 81.8516 62.4473H91.8203C95.121 62.4472 98.5884 61.847 102.022 60.8135C103.89 60.2467 106.29 59.1135 108.624 57.8799C112.458 55.8794 125.494 47.2784 128.528 45.6777C140.131 39.5764 153.134 36.4082 166.37 36.4082H177.739C208.346 36.4082 233.185 61.2143 233.185 91.8545V114.526C233.184 123.528 225.883 130.83 216.882 130.83H159.235L139.998 144.299C134.664 148.033 128.028 150.001 121.06 150.001C114.092 150.001 107.257 147.9 102.423 143.466C100.689 141.899 100.822 139.131 102.723 137.798L112.691 130.83H103.189C68.9485 130.83 41.209 103.09 41.209 68.8486V42.8096H34.0742C15.27 42.8096 0 27.5729 0 8.73535H33.54ZM477.188 14.5947V60.0557H477.659C479.973 55.5057 483.386 51.9363 487.857 49.3867C492.329 46.8372 497.114 45.543 503.312 45.543C509.509 45.543 514.805 46.9938 519.315 49.9355C523.787 52.8381 527.239 57.0353 529.671 62.4873C532.064 67.9395 533.279 74.3729 533.279 81.7471V101.751C538.496 101.163 543.752 101.398 548.891 102.418C547.792 98.1818 547.165 93.671 547.165 88.8857C547.165 80.6878 548.773 73.3133 552.028 66.7236C555.245 60.134 559.756 54.9569 565.562 51.1914C571.367 47.4259 577.917 45.543 585.252 45.543C595.999 45.543 603.884 49.818 608.865 58.4473H609.492V47.7783H635.146V113.44C641.107 114.892 647.383 114.578 653.228 112.538V14.5947H679.077V103.085C684.176 101.751 689.393 101.202 694.57 101.438C693.511 97.5151 692.923 93.3182 692.923 88.8467C692.923 80.4527 694.767 72.9608 698.532 66.3711C702.259 59.7814 707.475 54.643 714.144 50.9951C720.812 47.3473 728.46 45.5039 736.736 45.5039C745.013 45.5039 752.388 47.3472 758.82 50.9951C765.253 54.643 770.273 59.7817 773.882 66.332C777.49 72.8825 779.295 80.4135 779.295 88.8467C779.177 91.9061 778.982 94.5343 778.668 96.6523H718.615C720.498 112.655 734.264 115.166 737.717 115.559C737.991 115.598 738.227 115.637 738.502 115.637C744.385 115.715 750.308 114.185 755.446 111.165C758.506 109.4 761.644 107.988 764.86 106.851C775.961 102.967 787.924 103.046 798.985 107.164C801.064 107.949 803.065 108.851 805.065 109.91C805.222 110.028 805.418 110.106 805.575 110.185C813.42 114.656 822.638 115.519 831.071 112.812C831.071 112.812 835.072 111.557 834.837 106.89C834.68 104.262 832.758 102.418 831.149 101.398C829.541 100.379 826.599 99.3974 822.363 98.4561L818.362 97.5146C809.38 95.4358 802.633 92.2984 798.044 88.1406C793.455 83.9829 791.141 78.8046 791.102 72.6465C791.102 67.469 792.631 62.8402 795.651 58.7217C798.672 54.6032 802.83 51.3876 808.125 49.0342C813.42 46.7199 819.304 45.543 825.854 45.543C831.503 45.543 836.955 46.4843 842.25 48.4062C847.545 50.289 852.488 53.1135 857.116 56.8398L844.212 73.1172C841.309 70.6853 838.406 68.8808 835.386 67.7041C832.366 66.5275 828.992 65.9395 825.697 65.9395C822.403 65.9395 819.814 66.4889 817.932 67.5479C816.049 68.6069 815.068 70.058 815.028 71.8623C815.068 73.1175 815.735 74.1374 816.99 74.9219C818.245 75.7063 820.52 76.491 823.814 77.2754L828.13 78.374C838.21 80.7667 845.663 84.1007 850.448 88.3369L850.526 88.4541C854.959 92.4158 857.312 97.3585 857.626 103.242C858.332 116.892 850.762 127.011 839.466 130.855C833.582 132.856 827.541 134.111 821.422 134.111C813.224 134.111 805.026 132.111 797.534 128.188L797.063 127.953C787.14 122.266 775.412 122.344 765.527 128.188C757.526 132.935 748.465 135.406 739.208 135.406H738.463C729.441 135.249 720.654 132.778 712.888 128.188L708.534 125.6C700.297 120.697 690.334 119.755 681.352 123.011L679.116 123.835L666.015 128.542C662.798 130.189 659.425 131.445 655.974 132.347C651.659 133.484 647.187 134.072 642.755 134.072C638.323 134.072 633.851 133.484 629.536 132.347C625.771 131.366 622.123 129.915 618.554 128.071V128.149C617.495 127.522 616.357 127.012 615.259 126.541C614.2 127.012 613.101 127.522 612.081 128.149C604.079 132.895 595.019 135.366 585.762 135.366H585.017C575.995 135.209 567.209 132.739 559.442 128.149L555.088 125.561C548.459 121.599 540.771 120.304 533.318 121.599C530.259 122.109 527.396 123.364 524.925 125.247C520.806 128.385 515.746 130.071 510.568 130.071H507.666V86.2188C507.548 80.8058 506.215 76.5693 503.665 73.5098C501.116 70.4504 497.625 68.9599 493.153 68.999C488.368 68.9598 484.524 70.6858 481.621 74.1768C478.719 77.6677 477.228 82.9631 477.188 90.0234V130.032H451.34V14.5947H477.188ZM319.746 93.2002H320.412L341.986 14.5947H366.069L387.683 93.2002H388.389L410.864 14.5947H439.576L402.588 130.032H374.542L354.42 59.2324H353.793L333.553 130.032H305.468L268.479 14.5947H297.349L319.746 93.2002ZM185.975 98.6221C183.041 98.6221 180.673 100.99 180.673 103.924C180.673 106.858 183.041 109.225 185.975 109.225C188.908 109.225 191.275 106.858 191.275 103.924C191.275 100.99 188.909 98.6221 185.975 98.6221ZM591.371 68.96C587.802 68.96 584.624 69.7831 581.8 71.4697C578.976 73.1564 576.779 75.51 575.21 78.5303C573.641 81.5506 572.856 85.0025 572.856 88.8857C572.856 92.769 573.641 96.2209 575.21 99.2412C576.779 102.261 578.976 104.615 581.8 106.302C582.545 106.733 583.33 107.125 584.114 107.438C586.35 108.341 588.743 108.812 591.371 108.812C594.98 108.811 598.196 107.988 601.021 106.302C602.119 105.635 603.099 104.85 604.001 103.987C605.452 102.654 606.669 101.085 607.649 99.2412C609.258 96.2209 610.042 92.769 610.042 88.8857C610.042 85.0025 609.258 81.5506 607.649 78.5303C606.041 75.51 603.845 73.1564 601.021 71.4697C598.196 69.7831 594.94 68.96 591.371 68.96ZM736.697 65.9395C732.226 65.9395 728.382 67.0774 725.205 69.3916H725.244C722.028 71.7058 719.91 74.8438 718.851 78.8447H753.289C752.779 75.0792 751.014 71.9798 747.994 69.5479C744.974 67.1552 741.169 65.9395 736.697 65.9395ZM210.047 10.9023L177.539 19.7041C176.439 20.0042 175.805 21.1049 176.105 22.2051C176.339 23.1052 177.172 23.7049 178.072 23.7051C178.239 23.7051 178.44 23.672 178.606 23.6387L198.177 18.3379V35.9082C191.809 33.5744 184.974 32.3076 177.806 32.3076H166.403C157.868 32.3076 149.4 33.5748 141.331 36.042L141.298 36.0752V16.2373L125.527 11.9697L169.737 0L210.047 10.9023Z" fill="white"/>
</svg>
