<svg width="429" height="75" viewBox="0 0 429 75" fill="none" xmlns="http://www.w3.org/2000/svg">
<path d="M16.7705 4.36816C21.2715 4.36822 24.9219 8.01856 24.9219 12.5195C24.9219 8.01853 28.5732 4.36816 33.0742 4.36816H49.8447C49.8445 13.7699 42.2261 21.4051 32.8076 21.4053H27.7725C28.3394 27.173 32.5575 31.2236 40.9258 31.2236H45.9102C47.5605 31.2236 49.2947 30.924 51.0117 30.4072C51.9452 30.1238 53.1457 29.5562 54.3125 28.9395C56.2302 27.9388 62.7478 23.639 64.2646 22.8389C70.0659 19.7882 76.5674 18.2041 83.1855 18.2041H88.8701C104.173 18.2043 116.593 30.6069 116.593 45.9268V57.2627C116.593 61.7637 112.941 65.415 108.44 65.415H79.6182L69.999 72.1494C67.3318 74.0165 64.0143 75 60.5303 75C57.0462 75 53.6281 73.9496 51.2109 71.7324C50.3445 70.9488 50.4113 69.5651 51.3613 68.8984L56.3457 65.415H51.5947C34.4744 65.415 20.6047 51.5451 20.6045 34.4248V21.4053H17.0371C7.63519 21.4053 0.000263868 13.7867 0 4.36816H16.7705ZM238.593 7.29785V30.0283H238.828C239.985 27.7533 241.691 25.9681 243.927 24.6934C246.163 23.4186 248.556 22.7715 251.654 22.7715C254.753 22.7715 257.401 23.4969 259.656 24.9678C261.892 26.4191 263.618 28.5181 264.834 31.2441C266.03 33.9701 266.638 37.1863 266.638 40.873V50.876C269.246 50.5818 271.874 50.6991 274.443 51.209C273.894 49.091 273.581 46.8358 273.581 44.4434C273.581 40.3445 274.385 36.6571 276.013 33.3623C277.621 30.0676 279.876 27.4785 282.778 25.5957C285.681 23.7129 288.957 22.7715 292.624 22.7715C297.998 22.7715 301.94 24.909 304.431 29.2236H304.744V23.8896H317.571V56.7197C320.552 57.4453 323.69 57.2893 326.612 56.2695V7.29785H339.536V51.543C342.086 50.8762 344.694 50.6011 347.283 50.7188C346.754 48.7576 346.46 46.6586 346.46 44.4229C346.46 40.226 347.382 36.4803 349.265 33.1855C351.128 29.8908 353.735 27.321 357.069 25.4971C360.403 23.6732 364.228 22.752 368.366 22.752C372.504 22.752 376.192 23.6732 379.408 25.4971C382.625 27.321 385.135 29.8908 386.939 33.166C388.744 36.4411 389.645 40.2065 389.646 44.4229C389.587 45.9526 389.489 47.2671 389.332 48.3262H359.306C360.247 56.3274 367.13 57.5831 368.856 57.7793C368.994 57.7989 369.112 57.8184 369.249 57.8184C372.191 57.8576 375.152 57.0931 377.722 55.583C379.251 54.7005 380.82 53.9936 382.429 53.4248C387.979 51.4833 393.961 51.5228 399.491 53.582C400.531 53.9743 401.531 54.4256 402.531 54.9551C402.61 55.0138 402.708 55.0536 402.786 55.0928C406.708 57.3284 411.318 57.7594 415.534 56.4062C415.564 56.3968 417.534 55.7612 417.417 53.4453C417.339 52.1314 416.377 51.2092 415.573 50.6992C414.769 50.1893 413.298 49.6992 411.18 49.2285L409.18 48.7578C404.689 47.7184 401.315 46.1492 399.021 44.0703C396.726 41.9914 395.568 39.4024 395.549 36.3232C395.549 33.7345 396.314 31.4205 397.824 29.3613C399.334 27.302 401.413 25.6933 404.061 24.5166C406.708 23.3595 409.651 22.7715 412.926 22.7715C415.75 22.7715 418.476 23.2422 421.123 24.2031C423.771 25.1445 426.242 26.5568 428.557 28.4199L422.104 36.5586C420.652 35.3429 419.201 34.4409 417.691 33.8525C416.181 33.2642 414.494 32.9697 412.847 32.9697C411.2 32.9698 409.905 33.244 408.964 33.7734C408.022 34.303 407.532 35.0295 407.513 35.9316C407.532 36.559 407.866 37.0688 408.493 37.4609C409.121 37.8531 410.258 38.2455 411.905 38.6377L414.062 39.1865C419.103 40.3829 422.83 42.0499 425.223 44.168L425.262 44.2275C427.478 46.2083 428.655 48.6794 428.812 51.6211C429.164 58.4461 425.379 63.5057 419.73 65.4277C416.789 66.4279 413.768 67.0557 410.709 67.0557C406.61 67.0556 402.511 66.0558 398.766 64.0947C398.687 64.0555 398.609 64.0158 398.53 63.9766C393.568 61.1328 387.704 61.1725 382.762 64.0947C378.761 66.4677 374.23 67.7031 369.602 67.7031H369.229C364.719 67.6247 360.326 66.3892 356.442 64.0947L354.266 62.7998C350.147 60.3483 345.165 59.878 340.674 61.5059L339.556 61.917L333.006 64.2705C331.398 65.0941 329.711 65.7218 327.985 66.1729C325.828 66.7416 323.592 67.0361 321.376 67.0361C319.16 67.0361 316.924 66.7416 314.767 66.1729C312.884 65.6825 311.059 64.9569 309.274 64.0352V64.0752C308.745 63.7614 308.176 63.5058 307.627 63.2705C307.098 63.5058 306.549 63.7615 306.039 64.0752C302.038 66.4483 297.507 67.6836 292.879 67.6836H292.507C287.996 67.6051 283.602 66.3698 279.719 64.0752L277.542 62.7803C274.228 60.7995 270.383 60.1526 266.657 60.7998C265.128 61.0548 263.696 61.6819 262.461 62.623C260.402 64.192 257.871 65.0361 255.282 65.0361H253.831V43.1094C253.772 40.403 253.106 38.2846 251.831 36.7549C250.556 35.2251 248.81 34.4794 246.574 34.499C244.182 34.4795 242.26 35.3427 240.809 37.0879C239.357 38.8334 238.612 41.4815 238.593 45.0117V65.0156H225.668V7.29785H238.593ZM159.871 46.6006H160.205L170.991 7.29785H183.033L193.84 46.6006H194.192L205.431 7.29785H219.787L201.292 65.0166H187.27L177.209 29.6162H176.895L166.775 65.0166H152.732L134.238 7.29785H148.673L159.871 46.6006ZM92.9873 49.3115C91.5204 49.3116 90.3369 50.495 90.3369 51.9619C90.3371 53.4287 91.5205 54.6123 92.9873 54.6123C94.4542 54.6123 95.6375 53.4288 95.6377 51.9619C95.6377 50.4949 94.4543 49.3115 92.9873 49.3115ZM295.684 34.4795C293.899 34.4795 292.311 34.8921 290.898 35.7354C289.486 36.5787 288.388 37.7555 287.604 39.2656C286.819 40.7757 286.427 42.5018 286.427 44.4434C286.427 46.3847 286.819 48.1102 287.604 49.6201C288.388 51.1303 289.486 52.3071 290.898 53.1504C291.271 53.3661 291.663 53.5628 292.056 53.7197C293.173 54.1707 294.37 54.4062 295.684 54.4062C297.488 54.4062 299.096 53.9937 300.508 53.1504C301.057 52.817 301.548 52.4246 301.999 51.9932C302.725 51.3264 303.332 50.5417 303.822 49.6201C304.626 48.1101 305.018 46.3847 305.019 44.4434C305.019 42.5018 304.626 40.7757 303.822 39.2656C303.018 37.7555 301.92 36.5787 300.508 35.7354C299.096 34.8921 297.468 34.4795 295.684 34.4795ZM368.347 32.9697C366.111 32.9698 364.189 33.5383 362.601 34.6953H362.62C361.012 35.8524 359.952 37.4215 359.423 39.4219H376.643C376.388 37.5393 375.505 35.9903 373.995 34.7744C372.485 33.5781 370.582 32.9697 368.347 32.9697ZM105.021 5.45117L88.7676 9.85254C88.2175 10.0026 87.9007 10.5524 88.0508 11.1025C88.1675 11.5526 88.5841 11.8525 89.0342 11.8525C89.1175 11.8525 89.2175 11.836 89.3008 11.8193L99.0869 9.16895V17.9541C95.903 16.7872 92.4853 16.1534 88.9014 16.1533H83.1992C78.9317 16.1534 74.6972 16.7869 70.6631 18.0205L70.6465 18.0371V8.11816L62.7617 5.98438L84.8662 0L105.021 5.45117Z" fill="url(#paint0_linear_414_366)"/>
<defs>
<linearGradient id="paint0_linear_414_366" x1="-27.6603" y1="-18.5516" x2="425.615" y2="61.3676" gradientUnits="userSpaceOnUse">
<stop offset="0.3" stop-color="#0C59FF"/>
<stop offset="1" stop-color="#B8DBFF"/>
</linearGradient>
</defs>
</svg>
