<svg width="210" height="55" viewBox="0 0 210 55" fill="none" xmlns="http://www.w3.org/2000/svg">
<rect width="210" height="55" rx="18.9" fill="#1060FF"/>
<path d="M74.8171 21.5971L51.8588 13.9304C50.9734 13.6648 50.0254 13.6648 49.14 13.9304L26.1817 21.5971C25.4213 21.8158 25.4317 22.894 26.1973 23.1023L33.5723 25.0919V37.7481C33.5723 39.6908 35.1504 41.269 37.0931 41.269H63.9056C65.8484 41.269 67.4265 39.6908 67.4265 37.7481V27.8106L50.8744 32.7846C50.8744 32.7846 50.8588 32.7846 50.8536 32.7846C50.739 32.8158 50.6244 32.8367 50.5046 32.8367C50.3848 32.8367 50.265 32.8158 50.1556 32.7846C49.7442 32.67 49.3952 32.3523 49.2598 31.9096C49.1817 31.6544 49.1869 31.3992 49.2598 31.1596C49.3796 30.7533 49.6973 30.42 50.1296 30.2846L50.5046 30.17L67.4317 25.0815L74.8067 23.0919C75.5723 22.8835 75.5775 21.8054 74.8223 21.5867L74.8171 21.5971Z" fill="white"/>
<path d="M83.9688 17.2891H87.3525L91.4834 33.6807H91.6885L95.9658 17.2891H99.3203L103.627 33.6953H103.803L107.948 17.2891H111.317L105.429 38.5H102.177L97.7383 22.6357H97.5771L93.1094 38.5H89.8574L83.9688 17.2891ZM116.84 38.5H113.72V17.2891H116.796V25.1846H117.001C117.382 24.2959 117.958 23.6074 118.729 23.1191C119.511 22.6309 120.502 22.3867 121.703 22.3867C122.816 22.3867 123.778 22.6162 124.589 23.0752C125.409 23.5244 126.039 24.1982 126.479 25.0967C126.928 25.9951 127.152 27.0889 127.152 28.3779V38.5H124.032V28.7441C124.032 27.9824 123.896 27.3281 123.622 26.7812C123.349 26.2246 122.958 25.8047 122.45 25.5215C121.942 25.2383 121.337 25.0967 120.634 25.0967C119.892 25.0967 119.237 25.2529 118.671 25.5654C118.114 25.8682 117.67 26.3223 117.338 26.9277C117.006 27.5234 116.84 28.2363 116.84 29.0664V38.5ZM140.57 31.293C140.316 31.293 139.521 31.3418 138.183 31.4395L136.601 31.5566C135.546 31.6348 134.726 31.8789 134.14 32.2891C133.563 32.6992 133.275 33.2852 133.275 34.0469C133.275 34.5449 133.402 34.9648 133.656 35.3066C133.91 35.6387 134.267 35.8975 134.726 36.083C135.185 36.2588 135.707 36.3467 136.293 36.3467C137.123 36.3467 137.841 36.1855 138.446 35.8633C139.062 35.5312 139.535 35.0918 139.867 34.5449C140.199 33.9883 140.365 33.3926 140.365 32.7578L140.351 27.748C140.351 27.1426 140.229 26.6299 139.984 26.21C139.75 25.7803 139.389 25.458 138.9 25.2432C138.412 25.0186 137.816 24.9062 137.113 24.9062C136.225 24.9062 135.497 25.0918 134.931 25.4629C134.374 25.8242 134.013 26.3125 133.847 26.9277H130.712C130.819 26.0391 131.151 25.2529 131.708 24.5693C132.265 23.8857 133.017 23.3535 133.964 22.9727C134.911 22.582 135.995 22.3867 137.216 22.3867C138.241 22.3867 139.213 22.543 140.131 22.8555C141.059 23.1582 141.845 23.7246 142.489 24.5547C143.134 25.375 143.456 26.5029 143.456 27.9385V38.5H140.424V36.3174H140.307C140.092 36.7568 139.779 37.167 139.369 37.5479C138.959 37.9287 138.432 38.2412 137.787 38.4854C137.152 38.7295 136.42 38.8516 135.59 38.8516C134.564 38.8516 133.646 38.6611 132.836 38.2803C132.025 37.8994 131.386 37.3428 130.917 36.6104C130.448 35.8779 130.214 35.0137 130.214 34.0176C130.214 32.3574 130.771 31.1758 131.884 30.4727C133.007 29.7695 134.433 29.3643 136.161 29.2568C136.396 29.2275 137.323 29.1689 138.944 29.0811L140.541 29.0225L140.57 31.293ZM150.385 38.5H147.265V17.2891H150.385V38.5ZM161.034 38.8223C159.501 38.8223 158.158 38.4854 157.006 37.8115C155.863 37.1377 154.984 36.1855 154.369 34.9551C153.754 33.7246 153.446 32.2939 153.446 30.6631C153.446 29.0322 153.754 27.5918 154.369 26.3418C154.984 25.082 155.849 24.1104 156.962 23.4268C158.075 22.7334 159.359 22.3867 160.814 22.3867C162.104 22.3867 163.28 22.665 164.345 23.2217C165.409 23.7686 166.264 24.6426 166.908 25.8438C167.553 27.0352 167.875 28.5439 167.875 30.3701V31.4688H155.204V29.1396H164.813C164.813 28.3291 164.647 27.6113 164.315 26.9863C163.993 26.3516 163.529 25.8535 162.924 25.4922C162.318 25.1309 161.625 24.9502 160.844 24.9502C159.994 24.9502 159.247 25.1553 158.603 25.5654C157.958 25.9756 157.455 26.5273 157.094 27.2207C156.732 27.9141 156.552 28.6562 156.552 29.4473V31.2637C156.552 32.3086 156.737 33.207 157.108 33.959C157.489 34.7109 158.017 35.2822 158.69 35.6729C159.374 36.0635 160.16 36.2588 161.049 36.2588C161.615 36.2588 162.128 36.1807 162.587 36.0244C163.046 35.8584 163.437 35.6533 163.759 35.4092C164.081 35.1553 164.33 34.8574 164.506 34.5156H167.685C167.45 35.375 167.03 36.127 166.425 36.7715C165.819 37.416 165.053 37.9189 164.125 38.2803C163.207 38.6416 162.177 38.8223 161.034 38.8223ZM179.887 26.9277C179.74 26.2637 179.408 25.751 178.891 25.3896C178.383 25.0283 177.709 24.8477 176.869 24.8477C176.283 24.8477 175.756 24.9404 175.287 25.126C174.828 25.3018 174.462 25.5557 174.188 25.8877C173.925 26.21 173.793 26.5762 173.793 26.9863C173.793 27.4551 173.998 27.8604 174.408 28.2021C174.818 28.5439 175.448 28.8076 176.298 28.9932L178.832 29.5791C180.297 29.9111 181.391 30.4336 182.113 31.1465C182.836 31.8496 183.197 32.7627 183.197 33.8857C183.197 34.8428 182.934 35.6973 182.406 36.4492C181.889 37.1914 181.142 37.7725 180.165 38.1924C179.188 38.6123 178.026 38.8223 176.679 38.8223C175.419 38.8223 174.33 38.6416 173.412 38.2803C172.494 37.9092 171.762 37.377 171.215 36.6836C170.678 35.9805 170.341 35.1406 170.204 34.1641H173.412C173.559 34.8672 173.9 35.3994 174.438 35.7607C174.984 36.1221 175.722 36.3027 176.649 36.3027C177.313 36.3027 177.895 36.2197 178.393 36.0537C178.9 35.8779 179.291 35.624 179.564 35.292C179.848 34.96 179.989 34.5742 179.989 34.1348C179.989 33.6172 179.789 33.1875 179.389 32.8457C178.998 32.5039 178.378 32.2451 177.528 32.0693L175.053 31.5127C173.617 31.1904 172.528 30.6582 171.786 29.916C171.044 29.1738 170.678 28.2559 170.688 27.1621C170.688 26.2246 170.941 25.3945 171.449 24.6719C171.967 23.9492 172.689 23.3877 173.617 22.9873C174.545 22.5869 175.624 22.3867 176.854 22.3867C178.007 22.3867 179.022 22.5771 179.901 22.958C180.78 23.3291 181.474 23.8564 181.981 24.54C182.489 25.2236 182.787 26.0195 182.875 26.9277H179.887Z" fill="white"/>
</svg>
