<svg width="250" height="85" viewBox="0 0 250 85" fill="none" xmlns="http://www.w3.org/2000/svg">
<rect x="1.5" y="1.5" width="247" height="82" rx="17.4" fill="url(#paint0_linear_414_463)"/>
<rect x="1.5" y="1.5" width="247" height="82" rx="17.4" stroke="#2B72FF" stroke-width="3"/>
<path d="M39.5889 40.4868C42.1302 40.4989 44.2681 40.4447 46.0024 40.3242C47.7368 40.2038 49.4772 39.9749 51.2236 39.6377L51.603 42.8896C49.7843 43.2269 47.9777 43.4557 46.1831 43.5762C44.4006 43.6846 42.2025 43.7448 39.5889 43.7568H37.3486V40.4868H39.5889ZM50.0674 31.9956H41.3232V42.2212H37.3486V28.7617H50.0674V31.9956ZM64.0146 47.5869H60.1846V26.0518H64.0146V47.5869ZM61.2324 37.4517H55.6138V34.1455H61.2324V37.4517ZM56.77 44.6782H53.0483V26.6299H56.77V44.6782ZM54.2769 47.063C54.2769 48.966 53.7469 50.7124 52.687 52.3022C51.6392 53.8921 50.1637 55.229 48.2607 56.313C46.3698 57.397 44.1838 58.1497 41.7026 58.5713L40.0405 55.4639C42.1965 55.1628 44.0874 54.5907 45.7134 53.7476C47.3394 52.8924 48.592 51.8867 49.4712 50.7305C50.3625 49.5622 50.8081 48.3397 50.8081 47.063V46.0151H54.2769V47.063ZM54.8369 47.063C54.8369 48.3397 55.2765 49.5622 56.1558 50.7305C57.035 51.8867 58.2936 52.8924 59.9316 53.7476C61.5697 54.5907 63.4666 55.1628 65.6226 55.4639L63.9424 58.5713C61.4733 58.1497 59.2873 57.397 57.3843 56.313C55.4933 55.229 54.0299 53.8921 52.9941 52.3022C51.9583 50.7124 51.4404 48.966 51.4404 47.063V46.0151H54.8369V47.063ZM90.8902 30.6226H69.8971V27.4248H90.8902V30.6226ZM96.0753 40.9927H66.2296V37.8311H96.0753V40.9927ZM92.4078 29.6108C92.4078 31.2609 92.3596 32.7725 92.2633 34.1455C92.1669 35.5186 91.926 37.0602 91.5406 38.7705L87.566 38.3911C87.9273 36.7049 88.1562 35.2235 88.2525 33.9468C88.3489 32.6701 88.3971 31.2248 88.3971 29.6108V27.4248H92.4078V29.6108ZM92.3536 52.4468H73.691V56.2588H69.6622V49.4116H88.379V46.7559H69.6441V43.6304H92.3536V52.4468ZM93.2208 58.4087H69.6622V55.2651H93.2208V58.4087ZM114.254 31.7065C114.254 33.7541 113.898 35.6691 113.188 37.4517C112.477 39.2342 111.435 40.7879 110.062 42.1128C108.689 43.4256 107.027 44.4193 105.076 45.0938L102.944 41.9863C104.642 41.4082 106.094 40.5892 107.298 39.5293C108.515 38.4574 109.43 37.2469 110.044 35.8979C110.671 34.549 110.984 33.1519 110.984 31.7065V29.4121H114.254V31.7065ZM115.031 31.7427C115.031 33.1037 115.32 34.4165 115.898 35.6812C116.488 36.9458 117.361 38.078 118.517 39.0776C119.686 40.0773 121.101 40.8542 122.763 41.4082L120.721 44.5156C118.818 43.8773 117.193 42.9198 115.844 41.6431C114.495 40.3664 113.471 38.8789 112.772 37.1807C112.086 35.4824 111.742 33.6698 111.742 31.7427V29.4121H115.031V31.7427ZM121.805 31.3271H104.082V28.1113H121.805V31.3271ZM129.068 45.7441H125.057V26.0518H129.068V45.7441ZM133.639 37.5781H127.93V34.2178H133.639V37.5781ZM129.068 58.6797H125.057V50.4595H107.298V47.2437H129.068V58.6797ZM144.652 30.9116C144.652 33.0916 144.297 35.1151 143.586 36.9819C142.876 38.8488 141.822 40.4748 140.425 41.8599C139.04 43.245 137.353 44.2988 135.366 45.0215L133.216 41.7695C134.975 41.1914 136.462 40.3543 137.679 39.2583C138.907 38.1623 139.829 36.9036 140.443 35.4824C141.057 34.0492 141.364 32.5256 141.364 30.9116V27.8223H144.652V30.9116ZM145.393 30.731C145.393 32.2365 145.682 33.6637 146.26 35.0127C146.838 36.3617 147.705 37.548 148.862 38.5718C150.018 39.5835 151.421 40.3543 153.071 40.8843L150.903 44.0098C149.012 43.3353 147.41 42.3537 146.098 41.0649C144.797 39.7762 143.815 38.2526 143.153 36.4941C142.49 34.7357 142.159 32.8146 142.159 30.731V27.8223H145.393V30.731ZM160.786 45.2563H156.775V26.0518H160.786V45.2563ZM149.747 46.1416C152.059 46.1416 154.047 46.3885 155.709 46.8823C157.383 47.3641 158.666 48.0807 159.557 49.0322C160.448 49.9717 160.894 51.1038 160.894 52.4287C160.894 53.7295 160.448 54.8496 159.557 55.7891C158.666 56.7285 157.383 57.4391 155.709 57.9209C154.047 58.4147 152.059 58.6616 149.747 58.6616C147.459 58.6616 145.477 58.4147 143.803 57.9209C142.141 57.4391 140.858 56.7285 139.955 55.7891C139.064 54.8496 138.618 53.7295 138.618 52.4287C138.618 51.1038 139.064 49.9717 139.955 49.0322C140.858 48.0807 142.141 47.3641 143.803 46.8823C145.477 46.3885 147.459 46.1416 149.747 46.1416ZM149.747 49.2671C148.241 49.2671 146.953 49.3875 145.881 49.6284C144.809 49.8573 143.996 50.2126 143.442 50.6943C142.888 51.1641 142.611 51.7422 142.611 52.4287C142.611 53.0671 142.888 53.6211 143.442 54.0908C143.996 54.5605 144.809 54.9159 145.881 55.1567C146.953 55.3976 148.241 55.5181 149.747 55.5181C151.277 55.5181 152.571 55.3976 153.631 55.1567C154.703 54.9159 155.51 54.5605 156.052 54.0908C156.606 53.6211 156.883 53.0671 156.883 52.4287C156.883 51.7422 156.606 51.1641 156.052 50.6943C155.51 50.2126 154.703 49.8573 153.631 49.6284C152.571 49.3875 151.277 49.2671 149.747 49.2671ZM157.407 35.6812H150.271V32.3931H157.407V35.6812Z" fill="#F0F4FF"/>
<path d="M219.389 28.668C219.197 28.364 218.169 27.228 214.373 23.552C213.673 22.876 212.761 22.54 211.849 22.54C210.937 22.54 209.993 22.888 209.293 23.584L182.525 50.16C182.245 50.44 182.045 50.74 181.933 51.056L181.861 51.36L180.001 60.868C179.977 61.704 180.637 62.392 181.541 62.46L191.373 60.548C191.689 60.448 192.029 60.232 192.341 59.92L219.101 33.16C220.185 31.82 220.301 30.096 219.389 28.668ZM190.293 57.584H190.261L183.525 58.94L184.881 52.176L184.973 52.084L205.705 31.468L210.993 36.82L190.293 57.584ZM216.973 30.82L213.165 34.64L207.889 29.3L211.829 25.384L217.045 30.752L216.973 30.824V30.82Z" fill="#F0F4FF"/>
<defs>
<linearGradient id="paint0_linear_414_463" x1="-1.0487e-06" y1="-0.499992" x2="255.498" y2="21.9606" gradientUnits="userSpaceOnUse">
<stop stop-color="#2B72FF"/>
<stop offset="1" stop-color="#7AA9FF"/>
</linearGradient>
</defs>
</svg>
