<svg width="305" height="85" viewBox="0 0 305 85" fill="none" xmlns="http://www.w3.org/2000/svg">
<rect x="1.5" y="1.5" width="302" height="82" rx="17.4" fill="url(#paint0_linear_414_416)"/>
<rect x="1.5" y="1.5" width="302" height="82" rx="17.4" stroke="#8FB7FF" stroke-width="3"/>
<path d="M79.2495 58.6797H75.4556V26.0518H79.2495V58.6797ZM69.4033 42.1128H61.8696V38.915H69.4033V42.1128ZM72.3301 57.1802H68.5361V26.8467H72.3301V57.1802ZM65.3022 30.0444C65.3022 33.1759 64.9048 36.0545 64.1099 38.6802C63.3149 41.3058 62.0202 43.7267 60.2256 45.9429C58.431 48.147 56.0643 50.1042 53.1255 51.8145L50.8311 48.96C53.3363 47.4785 55.3657 45.8345 56.9194 44.0278C58.4731 42.2212 59.6053 40.2339 60.3159 38.0659C61.0386 35.8859 61.3999 33.4771 61.3999 30.8394V30.0444H65.3022ZM62.7549 33.2964H52.4932V30.0444H62.7549V33.2964ZM92.8102 33.8926C92.8102 36.6146 92.4368 39.186 91.69 41.6069C90.9553 44.0158 89.8774 46.1356 88.4562 47.9663C87.0349 49.797 85.3246 51.1882 83.3253 52.1396L80.8683 48.7793C82.6388 47.9964 84.1744 46.8462 85.4752 45.3286C86.776 43.799 87.7696 42.0465 88.4562 40.0713C89.1547 38.084 89.504 36.0244 89.504 33.8926V28.6714H92.8102V33.8926ZM93.5509 33.8926C93.5509 35.916 93.8881 37.8732 94.5626 39.7642C95.2371 41.6551 96.2127 43.3413 97.4894 44.8228C98.7781 46.3042 100.284 47.4183 102.006 48.165L99.6212 51.3809C97.6941 50.4775 96.02 49.1466 94.5987 47.3882C93.1775 45.6177 92.0935 43.5762 91.3468 41.2637C90.6 38.9512 90.2267 36.4941 90.2267 33.8926V28.6714H93.5509V33.8926ZM108.383 58.77H104.318V26.0518H108.383V58.77ZM136.018 30.6226H115.025V27.4248H136.018V30.6226ZM141.203 40.9927H111.357V37.8311H141.203V40.9927ZM137.535 29.6108C137.535 31.2609 137.487 32.7725 137.391 34.1455C137.294 35.5186 137.054 37.0602 136.668 38.7705L132.694 38.3911C133.055 36.7049 133.284 35.2235 133.38 33.9468C133.476 32.6701 133.525 31.2248 133.525 29.6108V27.4248H137.535V29.6108ZM137.481 52.4468H118.819V56.2588H114.79V49.4116H133.507V46.7559H114.772V43.6304H137.481V52.4468ZM138.348 58.4087H114.79V55.2651H138.348V58.4087ZM159.381 31.7065C159.381 33.7541 159.026 35.6691 158.315 37.4517C157.605 39.2342 156.563 40.7879 155.19 42.1128C153.817 43.4256 152.155 44.4193 150.204 45.0938L148.072 41.9863C149.77 41.4082 151.221 40.5892 152.426 39.5293C153.642 38.4574 154.558 37.2469 155.172 35.8979C155.798 34.549 156.111 33.1519 156.111 31.7065V29.4121H159.381V31.7065ZM160.158 31.7427C160.158 33.1037 160.447 34.4165 161.025 35.6812C161.615 36.9458 162.489 38.078 163.645 39.0776C164.813 40.0773 166.228 40.8542 167.891 41.4082L165.849 44.5156C163.946 43.8773 162.32 42.9198 160.971 41.6431C159.622 40.3664 158.598 38.8789 157.9 37.1807C157.213 35.4824 156.87 33.6698 156.87 31.7427V29.4121H160.158V31.7427ZM166.933 31.3271H149.21V28.1113H166.933V31.3271ZM174.196 45.7441H170.185V26.0518H174.196V45.7441ZM178.767 37.5781H173.058V34.2178H178.767V37.5781ZM174.196 58.6797H170.185V50.4595H152.426V47.2437H174.196V58.6797ZM189.78 30.9116C189.78 33.0916 189.424 35.1151 188.714 36.9819C188.003 38.8488 186.949 40.4748 185.552 41.8599C184.167 43.245 182.481 44.2988 180.494 45.0215L178.344 41.7695C180.102 41.1914 181.59 40.3543 182.806 39.2583C184.035 38.1623 184.956 36.9036 185.57 35.4824C186.185 34.0492 186.492 32.5256 186.492 30.9116V27.8223H189.78V30.9116ZM190.521 30.731C190.521 32.2365 190.81 33.6637 191.388 35.0127C191.966 36.3617 192.833 37.548 193.989 38.5718C195.146 39.5835 196.549 40.3543 198.199 40.8843L196.031 44.0098C194.14 43.3353 192.538 42.3537 191.225 41.0649C189.924 39.7762 188.943 38.2526 188.28 36.4941C187.618 34.7357 187.287 32.8146 187.287 30.731V27.8223H190.521V30.731ZM205.913 45.2563H201.902V26.0518H205.913V45.2563ZM194.875 46.1416C197.187 46.1416 199.174 46.3885 200.836 46.8823C202.511 47.3641 203.793 48.0807 204.685 49.0322C205.576 49.9717 206.021 51.1038 206.021 52.4287C206.021 53.7295 205.576 54.8496 204.685 55.7891C203.793 56.7285 202.511 57.4391 200.836 57.9209C199.174 58.4147 197.187 58.6616 194.875 58.6616C192.586 58.6616 190.605 58.4147 188.931 57.9209C187.269 57.4391 185.986 56.7285 185.083 55.7891C184.191 54.8496 183.746 53.7295 183.746 52.4287C183.746 51.1038 184.191 49.9717 185.083 49.0322C185.986 48.0807 187.269 47.3641 188.931 46.8823C190.605 46.3885 192.586 46.1416 194.875 46.1416ZM194.875 49.2671C193.369 49.2671 192.08 49.3875 191.008 49.6284C189.936 49.8573 189.123 50.2126 188.569 50.6943C188.015 51.1641 187.738 51.7422 187.738 52.4287C187.738 53.0671 188.015 53.6211 188.569 54.0908C189.123 54.5605 189.936 54.9159 191.008 55.1567C192.08 55.3976 193.369 55.5181 194.875 55.5181C196.404 55.5181 197.699 55.3976 198.759 55.1567C199.831 54.9159 200.638 54.5605 201.18 54.0908C201.734 53.6211 202.011 53.0671 202.011 52.4287C202.011 51.7422 201.734 51.1641 201.18 50.6943C200.638 50.2126 199.831 49.8573 198.759 49.6284C197.699 49.3875 196.404 49.2671 194.875 49.2671ZM202.535 35.6812H195.398V32.3931H202.535V35.6812Z" fill="#111111"/>
<path d="M245.574 25.1611C246.434 25.2511 246.81 25.9419 246.811 26.543C246.807 27.1856 246.389 27.8764 245.46 27.9697L231.14 27.9805C229.326 28.2396 227.943 29.7181 227.809 31.5732V53.5498C227.954 55.5053 229.557 57.0538 231.54 57.1367H253.399C255.237 57.0019 256.716 55.6197 256.979 53.7783L256.985 39.499C257.055 38.6078 257.739 38.1693 258.347 38.1416C258.958 38.1174 259.642 38.4731 259.791 39.3438L259.794 39.3506L259.801 39.3887V53.8262C259.538 57.122 256.854 59.7481 253.552 59.9521L230.507 59.8594C227.632 59.3963 225.266 56.8842 225 54.0098V31.1211C225.387 27.9219 227.926 25.4272 231.039 25.1611H245.574ZM251.827 25.835C252.94 24.7329 254.76 24.7188 255.887 25.8105C258.081 27.9353 259.303 29.1829 259.518 29.5215C260.24 30.6581 260.146 32.0364 259.269 33.1143L240.14 52.2441C239.877 52.5067 239.59 52.6865 239.289 52.7764L232.221 54.1475H232.193C231.375 54.0922 230.776 53.4533 230.804 52.6621V52.6279L232.165 45.6865L232.387 45.7246L232.172 45.6592L232.169 45.6621C232.259 45.3652 232.435 45.0885 232.69 44.833L251.827 25.835ZM234.874 46.6406L234.014 50.9346L238.309 50.0742L257.154 31.1689L253.852 27.7695L234.874 46.6406Z" fill="#111111"/>
<defs>
<linearGradient id="paint0_linear_414_416" x1="-1.27941e-06" y1="-0.499992" x2="310.544" y2="32.8057" gradientUnits="userSpaceOnUse">
<stop stop-color="#8FB7FF"/>
<stop offset="1" stop-color="#CFE3FF"/>
</linearGradient>
</defs>
</svg>
