<svg width="65" height="65" viewBox="0 0 65 65" fill="none" xmlns="http://www.w3.org/2000/svg">
<path fill-rule="evenodd" clip-rule="evenodd" d="M63.7 32.8597C63.7 30.5812 63.4932 28.3903 63.1091 26.2871H32.5V38.7166H49.9909C49.2375 42.7332 46.9477 46.1364 43.5057 48.4149V56.4773H54.0091C60.1545 50.8833 63.7 42.6456 63.7 32.8597Z" fill="#4285F4"/>
<path fill-rule="evenodd" clip-rule="evenodd" d="M32.5002 64.2717C41.2752 64.2717 48.632 61.3943 54.0093 56.4868L43.5059 48.4244C40.5957 50.3524 36.8729 51.4916 32.5002 51.4916C24.0354 51.4916 16.8707 45.8392 14.315 38.2441H3.45703V46.5695C8.80476 57.071 19.7957 64.2717 32.5002 64.2717Z" fill="#34A853"/>
<path fill-rule="evenodd" clip-rule="evenodd" d="M14.3148 38.2369C13.6648 36.309 13.2955 34.2495 13.2955 32.1317C13.2955 30.0139 13.6648 27.9544 14.3148 26.0265V17.7012H3.45682C1.25568 22.0391 0 26.9466 0 32.1317C0 37.3168 1.25568 42.2243 3.45682 46.5622L14.3148 38.2369Z" fill="#FBBC05"/>
<path fill-rule="evenodd" clip-rule="evenodd" d="M32.5002 12.7801C37.2718 12.7801 41.5559 14.4013 44.9241 17.5854L54.2457 8.36913C48.6173 3.18407 41.2604 0 32.5002 0C19.7957 0 8.80476 7.20066 3.45703 17.7022L14.315 26.0275C16.8707 18.4325 24.0354 12.7801 32.5002 12.7801Z" fill="#EA4335"/>
</svg>
