<svg width="100" height="100" viewBox="0 0 100 100" fill="none" xmlns="http://www.w3.org/2000/svg">
<path d="M98.4716 15.32C97.9916 14.56 95.4216 11.72 85.9316 2.53C84.1816 0.84 81.9016 0 79.6216 0C77.3416 0 74.9816 0.87 73.2316 2.61L6.31158 69.05C5.61159 69.75 5.11159 70.5 4.83158 71.29L4.65159 72.05L0.00158494 95.82C-0.0584151 97.91 1.59158 99.63 3.85158 99.8L28.4316 95.02C29.2216 94.77 30.0716 94.23 30.8516 93.45L97.7516 26.55C100.462 23.2 100.752 18.89 98.4716 15.32ZM25.7316 87.61H25.6516L8.81159 91L12.2016 74.09L12.4316 73.86L64.2616 22.32L77.4816 35.7L25.7316 87.61ZM92.4316 20.7L82.9116 30.25L69.7216 16.9L79.5716 7.11L92.6116 20.53L92.4316 20.71V20.7Z" fill="black"/>
</svg>
