<svg width="47" height="47" viewBox="0 0 47 47" fill="none" xmlns="http://www.w3.org/2000/svg">
<path d="M42.5707 10.1425C37.8613 3.30873 30.1251 -0.47006 21.8766 0.0469398C13.4025 0.57334 6.1175 5.48954 2.3857 13.1928C-1.3414 20.8867 -0.669305 29.6522 4.1764 36.6364C9.0221 43.6159 16.9792 47.3289 25.458 46.5628C33.9368 45.7967 41.0996 40.7254 44.6105 32.9939C48.018 25.4927 47.2566 16.9528 42.566 10.1425H42.5707ZM35.7322 38.7326C32.0709 41.6936 27.8033 43.1929 23.484 43.1929C19.9402 43.1929 16.3635 42.1824 13.0641 40.1473C5.7697 35.6447 2.24 27.3492 4.0636 19.0114C5.8308 10.9415 13.2145 4.34744 21.2468 3.67534C30.3366 2.90924 38.3689 7.79724 41.7106 16.1162C44.9865 24.2707 42.6412 33.149 35.7369 38.7373L35.7322 38.7326Z" fill="white"/>
<path d="M36.3601 14.7203C35.9559 14.1328 35.2321 13.8461 34.4754 13.973C34.2028 14.02 33.9067 14.161 33.7187 14.3302L19.6093 28.4208L12.987 21.9113C12.2209 21.2862 11.2997 21.446 10.7357 21.8831C10.2328 22.2685 9.79571 23.0534 10.2046 23.9981L18.5048 32.4158C19.1534 32.9281 20.1686 32.8811 20.7514 32.2983L36.393 16.6379C36.7549 16.0222 36.7502 15.2937 36.3554 14.725L36.3601 14.7203Z" fill="white"/>
</svg>
