<svg width="260" height="85" viewBox="0 0 260 85" fill="none" xmlns="http://www.w3.org/2000/svg">
<rect width="260" height="85" rx="18.9" fill="#4584FF"/>
<path d="M55.9478 54.7773H26.1021V51.417H55.9478V54.7773ZM53.3281 32.3208H28.5229V29.0688H53.3281V32.3208ZM53.2017 45.9067H28.6494V42.6909H53.2017V45.9067ZM37.2671 43.0342H33.2383V31.9956H37.2671V43.0342ZM48.5586 43.0342H44.6021V31.9956H48.5586V43.0342ZM86.0753 54.9219H56.2296V51.6157H86.0753V54.9219ZM73.0494 53.0249H69.0929V45.166H73.0494V53.0249ZM82.5162 38.7705H63.7633V44.6963H59.7525V35.6089H78.5597V31.5259H59.6983V28.2739H82.5162V38.7705ZM83.2931 46.2681H59.7525V42.998H83.2931V46.2681ZM113.583 42.8716H109.554V26.0518H113.583V42.8716ZM113.583 52.6816H95.7336V57.0176H91.759V49.7729H109.609V47.4062H91.6687V44.2627H113.583V52.6816ZM114.613 58.4268H91.759V55.229H114.613V58.4268ZM105.471 31.2549H87.7663V28.1475H105.471V31.2549ZM86.8811 38.8608C90.5666 38.8608 94.1016 38.7946 97.486 38.6621C100.87 38.5176 103.996 38.2767 106.862 37.9395L107.043 40.8481C104.092 41.3058 100.931 41.625 97.5583 41.8057C94.1859 41.9743 90.7774 42.0586 87.3327 42.0586L86.8811 38.8608ZM94.4689 40.4146H90.6027V29.5566H94.4689V40.4146ZM102.581 40.4146H98.7146V29.5566H102.581V40.4146ZM139.747 28.7798C139.747 30.8273 139.181 32.7243 138.049 34.4707C136.917 36.2051 135.327 37.6564 133.279 38.8247C131.232 39.981 128.907 40.7638 126.306 41.1733L124.716 37.9214C126.956 37.6444 128.949 37.0422 130.696 36.1147C132.454 35.1753 133.815 34.0672 134.779 32.7905C135.742 31.5018 136.224 30.1649 136.224 28.7798V27.0996H139.747V28.7798ZM140.433 28.7798C140.433 30.1528 140.921 31.4897 141.897 32.7905C142.872 34.0793 144.239 35.1873 145.998 36.1147C147.756 37.0422 149.756 37.6444 151.996 37.9214L150.406 41.1733C147.793 40.7638 145.462 39.9749 143.414 38.8066C141.379 37.6383 139.789 36.187 138.645 34.4526C137.501 32.7062 136.929 30.8153 136.929 28.7798V27.0996H140.433V28.7798ZM140.217 58.6797H136.26V46.5391H140.217V58.6797ZM153.188 47.3159H123.451V44.0098H153.188V47.3159ZM177.986 37.4697H171.338V34.1997H177.986V37.4697ZM180.913 45.4731H176.902V26.0518H180.913V45.4731ZM169.875 46.2861C172.187 46.2861 174.174 46.533 175.836 47.0269C177.511 47.5086 178.793 48.2192 179.685 49.1587C180.576 50.0861 181.021 51.2002 181.021 52.501C181.021 53.8018 180.576 54.9159 179.685 55.8433C178.793 56.7707 177.511 57.4753 175.836 57.957C174.174 58.4508 172.187 58.7098 169.875 58.7339C167.586 58.7098 165.605 58.4508 163.931 57.957C162.269 57.4753 160.986 56.7707 160.083 55.8433C159.191 54.9159 158.746 53.8018 158.746 52.501C158.746 51.2002 159.191 50.0861 160.083 49.1587C160.986 48.2192 162.269 47.5086 163.931 47.0269C165.605 46.533 167.586 46.2861 169.875 46.2861ZM169.875 49.3574C168.369 49.3574 167.08 49.4779 166.008 49.7188C164.936 49.9476 164.123 50.2969 163.569 50.7666C163.015 51.2363 162.738 51.8145 162.738 52.501C162.738 53.1514 163.015 53.7114 163.569 54.1812C164.123 54.6509 164.936 55.0122 166.008 55.2651C167.08 55.506 168.369 55.6265 169.875 55.6265C171.404 55.6265 172.699 55.506 173.759 55.2651C174.831 55.0122 175.638 54.6509 176.18 54.1812C176.734 53.7114 177.011 53.1514 177.011 52.501C177.011 51.8145 176.734 51.2363 176.18 50.7666C175.638 50.2969 174.831 49.9476 173.759 49.7188C172.699 49.4779 171.404 49.3574 169.875 49.3574ZM164.762 31.6704C164.762 33.73 164.4 35.6751 163.678 37.5059C162.967 39.3245 161.919 40.9204 160.534 42.2935C159.161 43.6665 157.505 44.6963 155.566 45.3828L153.47 42.1851C155.181 41.5949 156.638 40.7578 157.842 39.6738C159.047 38.5778 159.95 37.3372 160.552 35.9521C161.167 34.5671 161.474 33.1398 161.474 31.6704V29.3398H164.762V31.6704ZM165.557 31.6343C165.557 32.9953 165.846 34.3081 166.424 35.5728C167.014 36.8374 167.887 37.9756 169.043 38.9873C170.212 39.987 171.609 40.7699 173.235 41.3359L171.229 44.5156C169.326 43.8652 167.707 42.8957 166.37 41.6069C165.033 40.3062 164.015 38.8006 163.316 37.0903C162.63 35.368 162.287 33.5493 162.287 31.6343V29.3398H165.557V31.6343ZM172.332 31.4355H154.663V28.1655H172.332V31.4355Z" fill="#F0F4FF"/>
<path d="M239.389 28.668C239.197 28.364 238.169 27.228 234.373 23.552C233.673 22.876 232.761 22.54 231.849 22.54C230.937 22.54 229.993 22.888 229.293 23.584L202.525 50.16C202.245 50.44 202.045 50.74 201.933 51.056L201.861 51.36L200.001 60.868C199.977 61.704 200.637 62.392 201.541 62.46L211.373 60.548C211.689 60.448 212.029 60.232 212.341 59.92L239.101 33.16C240.185 31.82 240.301 30.096 239.389 28.668ZM210.293 57.584H210.261L203.525 58.94L204.881 52.176L204.973 52.084L225.705 31.468L230.993 36.82L210.293 57.584ZM236.973 30.82L233.165 34.64L227.889 29.3L231.829 25.384L237.045 30.752L236.973 30.824V30.82Z" fill="#F0F4FF"/>
</svg>
